<svg width="64" height="64" viewBox="0 0 64 64" fill="none" xmlns="http://www.w3.org/2000/svg">
<path opacity="0.3" d="M48.3173 27.0457V22.3857H51.9609V27.0457" fill="white"/>
<path d="M48.3173 22.3857H51.9609V27.0457" stroke="white" stroke-miterlimit="10" stroke-linecap="round" stroke-linejoin="round"/>
<path opacity="0.3" d="M17.3164 27.0457V22.3857H20.96V27.0457" fill="white"/>
<path d="M17.2734 27.0458V22.3858H20.9165M23.5254 27.0458H20.9165V10.5076H48.317V27.0458H45.8628" stroke="white" stroke-miterlimit="10" stroke-linecap="round" stroke-linejoin="round"/>
<path d="M23.7158 14.469H42.3825H23.7158ZM23.7158 18.469H44.1603H23.7158Z" fill="white"/>
<path d="M23.7158 14.469H42.3825M23.7158 18.469H44.1603" stroke="white" stroke-miterlimit="10" stroke-linecap="round" stroke-linejoin="round"/>
<path opacity="0.3" d="M61.0297 33.4892H61.7675C62.1061 33.4882 62.4305 33.3532 62.6699 33.1138C62.9093 32.8744 63.0442 32.55 63.0453 32.2115V27.3212C63.0442 26.9827 62.9093 26.6583 62.6699 26.4189C62.4305 26.1795 62.1061 26.0445 61.7675 26.0435H61.0297C60.6912 26.0445 60.3668 26.1795 60.1274 26.4189C59.888 26.6583 59.753 26.9827 59.752 27.3212V32.2115C59.7529 32.5501 59.8878 32.8745 60.1272 33.1139C60.3667 33.3534 60.6911 33.4883 61.0297 33.4892Z" fill="white"/>
<path d="M61.0297 33.4892H61.7675C62.1061 33.4882 62.4305 33.3532 62.6699 33.1138C62.9093 32.8744 63.0442 32.55 63.0453 32.2115V27.3212C63.0442 26.9827 62.9093 26.6583 62.6699 26.4189C62.4305 26.1795 62.1061 26.0445 61.7675 26.0435H61.0297C60.6912 26.0445 60.3668 26.1795 60.1274 26.4189C59.888 26.6583 59.753 26.9827 59.752 27.3212V32.2115C59.7529 32.5501 59.8878 32.8745 60.1272 33.1139C60.3667 33.3534 60.6911 33.4883 61.0297 33.4892Z" stroke="white" stroke-miterlimit="10" stroke-linecap="round" stroke-linejoin="round"/>
<path opacity="0.3" d="M7.33733 33.5058H8.07511C8.41367 33.5048 8.73807 33.3698 8.97747 33.1304C9.21687 32.891 9.35183 32.5666 9.35289 32.2281V27.3378C9.35183 26.9993 9.21687 26.6749 8.97747 26.4355C8.73807 26.1961 8.41367 26.0611 8.07511 26.0601H7.33733C6.99877 26.0611 6.67437 26.1961 6.43497 26.4355C6.19557 26.6749 6.06061 26.9993 6.05956 27.3378V32.2281C6.06049 32.5667 6.19542 32.8911 6.43484 33.1305C6.67427 33.37 6.99873 33.5049 7.33733 33.5058Z" fill="white"/>
<path d="M7.33644 33.5005H8.07422C8.41278 33.4994 8.73718 33.3644 8.97658 33.125C9.21598 32.8856 9.35094 32.5613 9.352 32.2227V27.3325C9.35094 26.9939 9.21598 26.6695 8.97658 26.4301C8.73718 26.1907 8.41278 26.0557 8.07422 26.0547H7.33644C6.99788 26.0557 6.67349 26.1907 6.43408 26.4301C6.19468 26.6695 6.05972 26.9939 6.05867 27.3325V32.2227C6.0596 32.5613 6.19453 32.8857 6.43396 33.1252C6.67338 33.3646 6.99784 33.4995 7.33644 33.5005Z" stroke="white" stroke-miterlimit="10" stroke-linecap="round" stroke-linejoin="round"/>
<path opacity="0.3" d="M58.5733 57.7716H10.5684C10.2837 57.7708 10.011 57.6574 9.80968 57.4561C9.6084 57.2548 9.49496 56.982 9.49414 56.6974V56.0774C9.49496 55.7927 9.6084 55.52 9.80968 55.3187C10.011 55.1174 10.2837 55.004 10.5684 55.0032H58.5733C58.8579 55.0041 59.1306 55.1176 59.3318 55.3188C59.5331 55.5201 59.6465 55.7928 59.6475 56.0774V56.6974C59.6467 56.982 59.5332 57.2548 59.3319 57.4561C59.1307 57.6574 58.8579 57.7708 58.5733 57.7716Z" fill="white"/>
<path d="M59.9375 26.9133H46.1597V27.228C46.1597 28.1778 45.073 28.6911 44.1233 28.6911H24.8575C23.9077 28.6911 23.9375 28.1778 23.9375 27.228V26.9133H9.71525V55.6836V55.5871C9.71525 55.6262 9.53125 55.6324 9.53125 55.672C9.53125 56.8684 10.0588 58.0244 11.2553 58.0244H57.3068C58.5032 58.0244 59.8481 56.9471 59.8481 55.7507C59.8481 55.7111 59.9375 55.5782 59.9375 55.5391V55.6836V26.9133Z" stroke="white" stroke-miterlimit="10" stroke-linecap="round" stroke-linejoin="round"/>
<path opacity="0.3" d="M15.9716 34.4914H15.3622C15.0825 34.4906 14.8145 34.3791 14.6167 34.1814C14.419 33.9836 14.3075 33.7156 14.3067 33.4359V32.8266C14.3075 32.5469 14.419 32.2788 14.6167 32.0811C14.8145 31.8833 15.0825 31.7718 15.3622 31.771H15.9716C16.2513 31.7718 16.5193 31.8833 16.717 32.0811C16.9148 32.2788 17.0263 32.5469 17.0271 32.8266V33.4359C17.0263 33.7156 16.9148 33.9836 16.717 34.1814C16.5193 34.3791 16.2513 34.4906 15.9716 34.4914ZM28.3813 34.4914H27.772C27.4923 34.4906 27.2243 34.3791 27.0265 34.1814C26.8287 33.9836 26.7173 33.7156 26.7164 33.4359V32.8266C26.7173 32.5469 26.8287 32.2788 27.0265 32.0811C27.2243 31.8833 27.4923 31.7718 27.772 31.771H28.3813C28.661 31.7718 28.929 31.8833 29.1268 32.0811C29.3246 32.2788 29.4361 32.5469 29.4369 32.8266V33.4359C29.4361 33.7156 29.3246 33.9836 29.1268 34.1814C28.929 34.3791 28.661 34.4906 28.3813 34.4914ZM40.7911 34.4914H40.1818C39.9021 34.4906 39.6341 34.3791 39.4363 34.1814C39.2385 33.9836 39.127 33.7156 39.1262 33.4359V32.8266C39.127 32.5469 39.2385 32.2788 39.4363 32.0811C39.6341 31.8833 39.9021 31.7718 40.1818 31.771H40.7911C41.0708 31.7718 41.3388 31.8833 41.5366 32.0811C41.7344 32.2788 41.8458 32.5469 41.8467 32.8266V33.4359C41.8458 33.7156 41.7344 33.9836 41.5366 34.1814C41.3388 34.3791 41.0708 34.4906 40.7911 34.4914ZM53.2004 34.4914H52.5911C52.3114 34.4906 52.0434 34.3791 51.8456 34.1814C51.6478 33.9836 51.5364 33.7156 51.5356 33.4359V32.8266C51.5364 32.5469 51.6478 32.2788 51.8456 32.0811C52.0434 31.8833 52.3114 31.7718 52.5911 31.771H53.2004C53.4801 31.7718 53.7481 31.8833 53.9459 32.0811C54.1437 32.2788 54.2552 32.5469 54.256 32.8266V33.4359C54.2552 33.7156 54.1437 33.9836 53.9459 34.1814C53.7481 34.3791 53.4801 34.4906 53.2004 34.4914Z" fill="white"/>
<path d="M15.9718 34.4914H15.3625C15.0828 34.4906 14.8148 34.3791 14.617 34.1814C14.4192 33.9836 14.3077 33.7156 14.3069 33.4359V32.8266C14.3077 32.5469 14.4192 32.2788 14.617 32.0811C14.8148 31.8833 15.0828 31.7718 15.3625 31.771H15.9718C16.2515 31.7718 16.5195 31.8833 16.7173 32.0811C16.9151 32.2788 17.0265 32.5469 17.0274 32.8266V33.4359C17.0265 33.7156 16.9151 33.9836 16.7173 34.1814C16.5195 34.3791 16.2515 34.4906 15.9718 34.4914ZM22.1767 34.4914H21.5674C21.2877 34.4906 21.0197 34.3791 20.8219 34.1814C20.6241 33.9836 20.5126 33.7156 20.5118 33.4359V32.8266C20.5126 32.5469 20.6241 32.2788 20.8219 32.0811C21.0197 31.8833 21.2877 31.7718 21.5674 31.771H22.1767C22.4564 31.7718 22.7244 31.8833 22.9222 32.0811C23.12 32.2788 23.2314 32.5469 23.2322 32.8266V33.4359C23.2314 33.7156 23.12 33.9836 22.9222 34.1814C22.7244 34.3791 22.4564 34.4906 22.1767 34.4914ZM28.3816 34.4914H27.7722C27.4925 34.4906 27.2245 34.3791 27.0268 34.1814C26.829 33.9836 26.7175 33.7156 26.7167 33.4359V32.8266C26.7175 32.5469 26.829 32.2788 27.0268 32.0811C27.2245 31.8833 27.4925 31.7718 27.7722 31.771H28.3816C28.6613 31.7718 28.9293 31.8833 29.1271 32.0811C29.3248 32.2788 29.4363 32.5469 29.4371 32.8266V33.4359C29.4363 33.7156 29.3248 33.9836 29.1271 34.1814C28.9293 34.3791 28.6613 34.4906 28.3816 34.4914ZM34.5865 34.4914H33.9771C33.6974 34.4906 33.4294 34.3791 33.2317 34.1814C33.0339 33.9836 32.9224 33.7156 32.9216 33.4359V32.8266C32.9224 32.5469 33.0339 32.2788 33.2317 32.0811C33.4294 31.8833 33.6974 31.7718 33.9771 31.771H34.5865C34.8662 31.7718 35.1342 31.8833 35.332 32.0811C35.5297 32.2788 35.6412 32.5469 35.642 32.8266V33.4359C35.6412 33.7156 35.5297 33.9836 35.332 34.1814C35.1342 34.3791 34.8662 34.4906 34.5865 34.4914ZM40.7914 34.4914H40.182C39.9023 34.4906 39.6343 34.3791 39.4365 34.1814C39.2388 33.9836 39.1273 33.7156 39.1265 33.4359V32.8266C39.1273 32.5469 39.2388 32.2788 39.4365 32.0811C39.6343 31.8833 39.9023 31.7718 40.182 31.771H40.7914C41.0711 31.7718 41.3391 31.8833 41.5368 32.0811C41.7346 32.2788 41.8461 32.5469 41.8469 32.8266V33.4359C41.8461 33.7156 41.7346 33.9836 41.5368 34.1814C41.3391 34.3791 41.0711 34.4906 40.7914 34.4914ZM46.9962 34.4914H46.3869C46.1072 34.4906 45.8392 34.3791 45.6414 34.1814C45.4437 33.9836 45.3322 33.7156 45.3314 33.4359V32.8266C45.3322 32.5469 45.4437 32.2788 45.6414 32.0811C45.8392 31.8833 46.1072 31.7718 46.3869 31.771H46.9962C47.2759 31.7718 47.544 31.8833 47.7417 32.0811C47.9395 32.2788 48.051 32.5469 48.0518 32.8266V33.4359C48.051 33.7156 47.9395 33.9836 47.7417 34.1814C47.544 34.3791 47.2759 34.4906 46.9962 34.4914ZM53.2007 34.4914H52.5914C52.3117 34.4906 52.0437 34.3791 51.8459 34.1814C51.6481 33.9836 51.5366 33.7156 51.5358 33.4359V32.8266C51.5366 32.5469 51.6481 32.2788 51.8459 32.0811C52.0437 31.8833 52.3117 31.7718 52.5914 31.771H53.2007C53.4804 31.7718 53.7484 31.8833 53.9462 32.0811C54.144 32.2788 54.2554 32.5469 54.2562 32.8266V33.4359C54.2554 33.7156 54.144 33.9836 53.9462 34.1814C53.7484 34.3791 53.4804 34.4906 53.2007 34.4914ZM13.1082 40.7919H12.4989C12.2192 40.7911 11.9512 40.6796 11.7534 40.4818C11.5557 40.284 11.4442 40.016 11.4434 39.7363V39.127C11.4442 38.8473 11.5557 38.5793 11.7534 38.3815C11.9512 38.1837 12.2192 38.0723 12.4989 38.0714H13.1082C13.3879 38.0723 13.656 38.1837 13.8537 38.3815C14.0515 38.5793 14.163 38.8473 14.1638 39.127V39.7363C14.163 40.016 14.0515 40.284 13.8537 40.4818C13.656 40.6796 13.3879 40.7911 13.1082 40.7919ZM19.3131 40.7919H18.7038C18.4241 40.7911 18.1561 40.6796 17.9583 40.4818C17.7605 40.284 17.6491 40.016 17.6482 39.7363V39.127C17.6491 38.8473 17.7605 38.5793 17.9583 38.3815C18.1561 38.1837 18.4241 38.0723 18.7038 38.0714H19.3131C19.5928 38.0723 19.8608 38.1837 20.0586 38.3815C20.2564 38.5793 20.3679 38.8473 20.3687 39.127V39.7363C20.3679 40.016 20.2564 40.284 20.0586 40.4818C19.8608 40.6796 19.5928 40.7911 19.3131 40.7919ZM25.5176 40.7919H24.9082C24.6285 40.7911 24.3605 40.6796 24.1628 40.4818C23.965 40.284 23.8535 40.016 23.8527 39.7363V39.127C23.8535 38.8473 23.965 38.5793 24.1628 38.3815C24.3605 38.1837 24.6285 38.0723 24.9082 38.0714H25.5176C25.7973 38.0723 26.0653 38.1837 26.2631 38.3815C26.4608 38.5793 26.5723 38.8473 26.5731 39.127V39.7363C26.5723 40.016 26.4608 40.284 26.2631 40.4818C26.0653 40.6796 25.7973 40.7911 25.5176 40.7919ZM31.7225 40.7919H31.1131C30.8334 40.7911 30.5654 40.6796 30.3677 40.4818C30.1699 40.284 30.0584 40.016 30.0576 39.7363V39.127C30.0584 38.8473 30.1699 38.5793 30.3677 38.3815C30.5654 38.1837 30.8334 38.0723 31.1131 38.0714H31.7225C32.0022 38.0723 32.2702 38.1837 32.468 38.3815C32.6657 38.5793 32.7772 38.8473 32.778 39.127V39.7363C32.7772 40.016 32.6657 40.284 32.468 40.4818C32.2702 40.6796 32.0022 40.7911 31.7225 40.7919ZM37.9274 40.7919H37.318C37.0383 40.7911 36.7703 40.6796 36.5725 40.4818C36.3748 40.284 36.2633 40.016 36.2625 39.7363V39.127C36.2633 38.8473 36.3748 38.5793 36.5725 38.3815C36.7703 38.1837 37.0383 38.0723 37.318 38.0714H37.9274C38.2071 38.0723 38.4751 38.1837 38.6728 38.3815C38.8706 38.5793 38.9821 38.8473 38.9829 39.127V39.7363C38.9821 40.016 38.8706 40.284 38.6728 40.4818C38.4751 40.6796 38.2071 40.7911 37.9274 40.7919ZM44.1322 40.7919H43.5229C43.2432 40.7911 42.9752 40.6796 42.7774 40.4818C42.5797 40.284 42.4682 40.016 42.4674 39.7363V39.127C42.4682 38.8473 42.5797 38.5793 42.7774 38.3815C42.9752 38.1837 43.2432 38.0723 43.5229 38.0714H44.1322C44.4119 38.0723 44.68 38.1837 44.8777 38.3815C45.0755 38.5793 45.187 38.8473 45.1878 39.127V39.7363C45.187 40.016 45.0755 40.284 44.8777 40.4818C44.68 40.6796 44.4119 40.7911 44.1322 40.7919ZM50.3371 40.7919H49.7278C49.4481 40.7911 49.1801 40.6796 48.9823 40.4818C48.7845 40.284 48.6731 40.016 48.6722 39.7363V39.127C48.6731 38.8473 48.7845 38.5793 48.9823 38.3815C49.1801 38.1837 49.4481 38.0723 49.7278 38.0714H50.3371C50.6168 38.0723 50.8848 38.1837 51.0826 38.3815C51.2804 38.5793 51.3919 38.8473 51.3927 39.127V39.7363C51.3919 40.016 51.2804 40.284 51.0826 40.4818C50.8848 40.6796 50.6168 40.7911 50.3371 40.7919ZM56.0647 40.7919H55.4554C55.1757 40.7911 54.9077 40.6796 54.7099 40.4818C54.5121 40.284 54.4006 40.016 54.3998 39.7363V39.127C54.4006 38.8473 54.5121 38.5793 54.7099 38.3815C54.9077 38.1837 55.1757 38.0723 55.4554 38.0714H56.0647C56.3444 38.0723 56.6124 38.1837 56.8102 38.3815C57.008 38.5793 57.1194 38.8473 57.1202 39.127V39.7363C57.1194 40.016 57.008 40.284 56.8102 40.4818C56.6124 40.6796 56.3444 40.7911 56.0647 40.7919ZM15.9718 47.0923H15.3625C15.0828 47.0915 14.8148 46.98 14.617 46.7823C14.4192 46.5845 14.3077 46.3165 14.3069 46.0368V45.4274C14.3077 45.1477 14.4192 44.8797 14.617 44.682C14.8148 44.4842 15.0828 44.3727 15.3625 44.3719H15.9718C16.2515 44.3727 16.5195 44.4842 16.7173 44.682C16.9151 44.8797 17.0265 45.1477 17.0274 45.4274V46.0368C17.0265 46.3165 16.9151 46.5845 16.7173 46.7823C16.5195 46.98 16.2515 47.0915 15.9718 47.0923ZM22.1767 47.0923H21.5674C21.2877 47.0915 21.0197 46.98 20.8219 46.7823C20.6241 46.5845 20.5126 46.3165 20.5118 46.0368V45.4274C20.5126 45.1477 20.6241 44.8797 20.8219 44.682C21.0197 44.4842 21.2877 44.3727 21.5674 44.3719H22.1767C22.4564 44.3727 22.7244 44.4842 22.9222 44.682C23.12 44.8797 23.2314 45.1477 23.2322 45.4274V46.0368C23.2314 46.3165 23.12 46.5845 22.9222 46.7823C22.7244 46.98 22.4564 47.0915 22.1767 47.0923ZM28.3816 47.0923H27.7722C27.4925 47.0915 27.2245 46.98 27.0268 46.7823C26.829 46.5845 26.7175 46.3165 26.7167 46.0368V45.4274C26.7175 45.1477 26.829 44.8797 27.0268 44.682C27.2245 44.4842 27.4925 44.3727 27.7722 44.3719H28.3816C28.6613 44.3727 28.9293 44.4842 29.1271 44.682C29.3248 44.8797 29.4363 45.1477 29.4371 45.4274V46.0368C29.4363 46.3165 29.3248 46.5845 29.1271 46.7823C28.9293 46.98 28.6613 47.0915 28.3816 47.0923ZM34.5865 47.0923H33.9771C33.6974 47.0915 33.4294 46.98 33.2317 46.7823C33.0339 46.5845 32.9224 46.3165 32.9216 46.0368V45.4274C32.9224 45.1477 33.0339 44.8797 33.2317 44.682C33.4294 44.4842 33.6974 44.3727 33.9771 44.3719H34.5865C34.8662 44.3727 35.1342 44.4842 35.332 44.682C35.5297 44.8797 35.6412 45.1477 35.642 45.4274V46.0368C35.6412 46.3165 35.5297 46.5845 35.332 46.7823C35.1342 46.98 34.8662 47.0915 34.5865 47.0923ZM40.7914 47.0923H40.182C39.9023 47.0915 39.6343 46.98 39.4365 46.7823C39.2388 46.5845 39.1273 46.3165 39.1265 46.0368V45.4274C39.1273 45.1477 39.2388 44.8797 39.4365 44.682C39.6343 44.4842 39.9023 44.3727 40.182 44.3719H40.7914C41.0711 44.3727 41.3391 44.4842 41.5368 44.682C41.7346 44.8797 41.8461 45.1477 41.8469 45.4274V46.0368C41.8461 46.3165 41.7346 46.5845 41.5368 46.7823C41.3391 46.98 41.0711 47.0915 40.7914 47.0923ZM46.9962 47.0923H46.3869C46.1072 47.0915 45.8392 46.98 45.6414 46.7823C45.4437 46.5845 45.3322 46.3165 45.3314 46.0368V45.4274C45.3322 45.1477 45.4437 44.8797 45.6414 44.682C45.8392 44.4842 46.1072 44.3727 46.3869 44.3719H46.9962C47.2759 44.3727 47.544 44.4842 47.7417 44.682C47.9395 44.8797 48.051 45.1477 48.0518 45.4274V46.0368C48.051 46.3165 47.9395 46.5845 47.7417 46.7823C47.544 46.98 47.2759 47.0915 46.9962 47.0923ZM53.2007 47.0923H52.5914C52.3117 47.0915 52.0437 46.98 51.8459 46.7823C51.6481 46.5845 51.5366 46.3165 51.5358 46.0368V45.4274C51.5366 45.1477 51.6481 44.8797 51.8459 44.682C52.0437 44.4842 52.3117 44.3727 52.5914 44.3719H53.2007C53.4804 44.3727 53.7484 44.4842 53.9462 44.682C54.144 44.8797 54.2554 45.1477 54.2562 45.4274V46.0368C54.2554 46.3165 54.144 46.5845 53.9462 46.7823C53.7484 46.98 53.4804 47.0915 53.2007 47.0923Z" stroke="white" stroke-miterlimit="10" stroke-linecap="round" stroke-linejoin="round"/>
<path opacity="0.3" d="M45.9814 52.8201H22.5809C22.3012 52.8192 22.0332 52.7078 21.8355 52.51C21.6377 52.3122 21.5262 52.0442 21.5254 51.7645V51.1552C21.5262 50.8755 21.6377 50.6075 21.8355 50.4097C22.0332 50.2119 22.3012 50.1004 22.5809 50.0996H45.9814C46.2611 50.1004 46.5291 50.2119 46.7269 50.4097C46.9247 50.6075 47.0361 50.8755 47.0369 51.1552V51.7645C47.0361 52.0442 46.9247 52.3122 46.7269 52.51C46.5291 52.7078 46.2611 52.8192 45.9814 52.8201Z" fill="white"/>
<path d="M45.9814 52.8201H22.5809C22.3012 52.8192 22.0332 52.7078 21.8355 52.51C21.6377 52.3122 21.5262 52.0442 21.5254 51.7645V51.1552C21.5262 50.8755 21.6377 50.6075 21.8355 50.4097C22.0332 50.2119 22.3012 50.1004 22.5809 50.0996H45.9814C46.2611 50.1004 46.5291 50.2119 46.7269 50.4097C46.9247 50.6075 47.0361 50.8755 47.0369 51.1552V51.7645C47.0361 52.0442 46.9247 52.3122 46.7269 52.51C46.5291 52.7078 46.2611 52.8192 45.9814 52.8201Z" stroke="white" stroke-miterlimit="10" stroke-linecap="round" stroke-linejoin="round"/>
<path d="M3.82116 6.61426V11.9831M1.13672 9.2987H6.50605" stroke="white" stroke-miterlimit="10" stroke-linecap="round" stroke-linejoin="round"/>
<path d="M59.6111 7.823V13.1919M56.9267 10.5074H62.2955" stroke="white" stroke-miterlimit="10" stroke-linecap="round" stroke-linejoin="round"/>
<path d="M9.94222 15.1843V18.3985M8.33511 16.7914H11.5493" stroke="white" stroke-miterlimit="10" stroke-linecap="round" stroke-linejoin="round"/>
</svg>
