<svg width="64" height="64" viewBox="0 0 64 64" fill="none" xmlns="http://www.w3.org/2000/svg">
<path d="M62.083 12.5443L55.8596 8.95152C54.8146 8.3474 53.4726 8.70665 52.8697 9.7529C52.4081 10.5506 49.4462 15.6815 48.992 16.4695V5.2564C48.992 2.8109 47.002 0.822021 44.5576 0.822021H16.3039C15.4842 0.822021 14.7134 1.14115 14.1336 1.72077L1.72086 14.1335C1.14111 14.7133 0.822113 15.4841 0.822113 16.305V58.7435C0.822113 61.189 2.81086 63.1779 5.25649 63.1779H44.5577C47.002 63.1779 48.9921 61.189 48.9921 58.7435V39.5971C51.0199 36.0835 60.6716 19.3668 62.8846 15.5341C63.4885 14.4868 63.1304 13.1495 62.083 12.5443ZM51.1171 15.2224L54.543 17.2003L39.8505 42.6493C38.8177 42.3435 38.3452 42.9038 37.5827 42.3655C37.0091 41.9612 37.0432 41.4193 36.6157 40.3414L51.1171 15.2224ZM47.7741 58.7436C47.7741 60.5169 46.3309 61.9601 44.5576 61.9601H5.25636C3.48186 61.9601 2.03986 60.5169 2.03986 58.7436C2.05811 13.5551 1.99724 16.2929 2.08736 15.8946H12.8242C14.5171 15.8946 15.8934 14.5173 15.8934 12.8244V2.08752C16.294 1.99615 14.645 2.05827 44.5576 2.04002C46.3309 2.04002 47.7741 3.48327 47.7741 5.25652V18.5789L40.3766 31.3911H8.81261C8.47649 31.3911 8.20361 31.6639 8.20361 32.0001C8.20361 32.3363 8.47636 32.6091 8.81261 32.6091H39.6739L35.4222 39.9725C35.3857 40.037 35.3577 40.1125 35.3467 40.1918L35.1506 41.5814H8.81261C8.47649 41.5814 8.20361 41.853 8.20361 42.1904C8.20361 42.5265 8.47636 42.7994 8.81261 42.7994H34.979L33.9304 50.2163C33.8487 50.7899 33.9937 51.3379 34.3189 51.7703H29.5204C29.183 51.7703 28.9114 52.043 28.9114 52.3793C28.9114 52.7154 29.183 52.9883 29.5204 52.9883H41.0001C41.3362 52.9883 41.6091 52.7154 41.6091 52.3793C41.6091 52.0431 41.3364 51.7703 41.0001 51.7703H37.8129L45.2846 45.9293C45.3406 45.8866 45.3942 45.8281 45.4369 45.7539L47.774 41.7069V58.7436H47.7741ZM44.5211 44.9048L43.101 45.1788C42.4446 45.3079 41.7881 44.9291 41.5725 44.2958C41.4531 43.9438 41.2084 43.548 40.9051 43.2569L55.5977 17.8091L59.0225 19.787L44.5211 44.9048Z" fill="#FA5117"/>
</svg>
